<?xml version="1.0" standalone="no"?>
<!DOCTYPE svg PUBLIC "-//W3C//DTD SVG 20010904//EN"
 "http://www.w3.org/TR/2001/REC-SVG-20010904/DTD/svg10.dtd">
<svg version="1.0" xmlns="http://www.w3.org/2000/svg"
 width="700.000000pt" height="700.000000pt" viewBox="0 0 700.000000 700.000000"
 preserveAspectRatio="xMidYMid meet">
<metadata>
Created by potrace 1.14, written by Peter Selinger 2001-2017
</metadata>
<g transform="translate(0.000000,700.000000) scale(0.100000,-0.100000)"
fill="#000000" stroke="none">
<path d="M1731 5436 l-83 -84 58 -34 c33 -19 184 -106 336 -193 l277 -160 -26
-44 c-21 -36 -23 -45 -12 -56 8 -7 663 -387 1457 -845 794 -458 1450 -839
1457 -847 12 -11 32 7 133 119 332 370 501 562 497 566 -2 2 -646 376 -1432
831 l-1428 826 -575 3 -575 2 -84 -84z"/>
<path d="M4370 5507 c8 -8 446 -263 974 -567 l958 -553 26 27 27 26 -66 67
c-36 38 -269 281 -518 541 l-452 472 -482 0 c-404 0 -479 -2 -467 -13z"/>
<path d="M856 4572 l-128 -130 677 -816 678 -816 489 0 488 0 0 -50 0 -50 693
0 c682 0 692 1 662 19 -80 50 -3402 1965 -3415 1968 -9 2 -67 -49 -144 -125z"/>
<path d="M2812 1933 c8 -10 151 -182 318 -383 166 -201 305 -366 309 -368 5
-2 293 317 654 725 l39 43 -668 0 c-634 0 -666 -1 -652 -17z"/>
</g>
</svg>
