<?xml version="1.0" standalone="no"?>
<!DOCTYPE svg PUBLIC "-//W3C//DTD SVG 20010904//EN"
 "http://www.w3.org/TR/2001/REC-SVG-20010904/DTD/svg10.dtd">
<svg version="1.0" xmlns="http://www.w3.org/2000/svg"
 width="700.000000pt" height="700.000000pt" viewBox="0 0 700.000000 700.000000"
 preserveAspectRatio="xMidYMid meet">
<metadata>
Created by potrace 1.14, written by Peter Selinger 2001-2017
</metadata>
<g transform="translate(0.000000,700.000000) scale(0.100000,-0.100000)"
fill="#000000" stroke="none">
<path d="M1727 5432 l-78 -79 323 -186 c178 -103 329 -191 336 -195 10 -7 7
-19 -13 -54 l-26 -46 93 -55 c141 -82 2810 -1622 2835 -1635 20 -11 43 12 326
330 261 293 302 344 288 354 -9 6 -653 378 -1432 827 l-1415 817 -580 0 -579
0 -78 -78z"/>
<path d="M4371 5506 c2 -2 438 -254 968 -561 l964 -556 26 25 25 26 -85 87
c-47 49 -278 289 -513 536 l-428 447 -481 0 c-264 0 -478 -2 -476 -4z"/>
<path d="M856 4571 l-128 -128 667 -804 c367 -442 674 -810 683 -816 12 -10
127 -13 499 -13 l483 0 0 -50 0 -50 692 0 c380 0 689 2 687 4 -12 10 -3440
1986 -3447 1986 -4 0 -65 -58 -136 -129z"/>
<path d="M2855 1883 c31 -38 174 -211 318 -385 144 -174 265 -316 269 -315 9
3 678 754 678 761 0 3 -297 6 -661 6 l-661 0 57 -67z"/>
</g>
</svg>
