<svg xmlns="http://www.w3.org/2000/svg" viewBox="0 0 290.3 90.7"><defs/><defs><style>.cls-1{fill:#401e58}</style></defs><g id="Layer_2" data-name="Layer 2"><g id="Layer_1-2" data-name="Layer 1"><path d="M36.3 54.4V18.1H18.1V0H0v54.4h36.3zM90.7 54.4V18.1H72.5V0H54.4v54.4h36.3zM113.5 68h9v9h-9zm0-13.5h-4.6v27H127V63.5h-13.6zM178.8 68h9v9h-9zm13.5-4.6h-18.1v18.1h13.6v4.6h-13.6v4.6h18.1zM155.2 77h-9V63.4h-4.6v18.1h18.2V63.4h-4.6V77zM211.4 68h9v9h-9zm0-13.5h-4.6v27H225V63.5h-13.7zM276.7 68h9v9h-9zm13.6-4.6h-18.1v18.1h13.5v4.6h-13.5v4.6h18.1zM253 77h-9V63.4h-4.6v18.1h18.1V63.4H253V77zM72.6 63.5v9.1H18.1v-9.1H0v18.1h18.1v9.1h54.5v-9.1h18.1V63.5H72.6z" class="cls-1"/></g></g></svg>
