<?xml version="1.0" encoding="UTF-8"?><svg id="a" xmlns="http://www.w3.org/2000/svg" viewBox="0 0 43 12"><defs><style>.b{fill:currentColor;}</style></defs><path class="b" d="M6.298,10.722h-.316V6.466c-.004-.636-.144-1.109-.419-1.419s-.714-.465-1.315-.465c-.695,0-1.264,.306-1.705,.919-.262,.367-.436,.773-.521,1.218v4.004h-.322V4.382h.322v1.5c.215-.516,.521-.914,.92-1.195s.84-.422,1.324-.422c.531,0,.966,.117,1.304,.352s.56,.617,.665,1.148c.188-.457,.492-.821,.914-1.093s.895-.407,1.418-.407c.684,0,1.192,.193,1.526,.58s.503,.967,.507,1.74v4.137h-.316V6.613c0-.694-.14-1.209-.419-1.542s-.718-.497-1.315-.489c-.77,.012-1.379,.318-1.828,.919-.258,.348-.398,.683-.422,1.007v4.215Z"/><path class="b" d="M12.228,7.488c0-1.012,.213-1.802,.639-2.37s1.01-.853,1.752-.853c.477,0,.897,.107,1.263,.322s.661,.535,.888,.961V1.722h.316V10.722h-.316v-1.014c-.215,.359-.51,.638-.885,.835s-.801,.296-1.277,.296c-.734,0-1.314-.291-1.74-.873s-.639-1.381-.639-2.396v-.082Zm.328,.123c0,.898,.178,1.608,.533,2.13s.859,.782,1.512,.782c.523,0,.971-.116,1.342-.349s.646-.573,.826-1.022v-2.971c-.363-1.066-1.082-1.6-2.156-1.6-.648,0-1.153,.256-1.515,.768s-.542,1.266-.542,2.262Z"/><path class="b" d="M22.997,9.169c0-.77-.656-1.293-1.969-1.57-.789-.168-1.338-.384-1.646-.647s-.463-.626-.463-1.087c0-.465,.196-.848,.589-1.148s.903-.451,1.532-.451c.684,0,1.232,.163,1.646,.489s.621,.767,.621,1.321h-.322c0-.426-.18-.781-.539-1.066s-.828-.428-1.406-.428c-.555,0-.994,.121-1.318,.363s-.486,.545-.486,.908c0,.285,.061,.509,.182,.671s.318,.309,.592,.439,.672,.257,1.195,.378,.938,.264,1.242,.428,.525,.358,.662,.583,.205,.499,.205,.823c0,.5-.205,.902-.615,1.207s-.947,.457-1.611,.457c-.711,0-1.284-.161-1.72-.483s-.653-.737-.653-1.245h.316c.031,.445,.228,.792,.589,1.04s.851,.372,1.468,.372c.566,0,1.026-.132,1.38-.396s.53-.583,.53-.958Z"/><path class="b" d="M26.923,10.218l2.279-5.836h.34l-2.467,6.34h-.311l-2.461-6.34h.34l2.279,5.836Z"/><path class="b" d="M32.993,10.839c-.512,0-.981-.138-1.409-.413s-.763-.653-1.005-1.134-.363-1.014-.363-1.6v-.264c0-.586,.117-1.123,.352-1.611s.557-.869,.967-1.143,.857-.41,1.342-.41c.707,0,1.285,.252,1.734,.756s.674,1.166,.674,1.986v.334h-4.752v.345c0,.515,.108,.991,.325,1.43,.217,.439,.516,.783,.896,1.033,.381,.25,.794,.374,1.239,.374,.426,0,.788-.071,1.087-.212s.563-.36,.794-.655l.223,.158c-.473,.684-1.174,1.025-2.104,1.025Zm-.117-6.258c-.617,0-1.141,.229-1.57,.688s-.682,1.044-.756,1.755h4.418v-.076c0-.43-.091-.829-.272-1.198s-.432-.656-.75-.861-.675-.308-1.069-.308Z"/><path class="b" d="M38.618,7.195l2.021-2.812h.398l-2.227,3.088,2.344,3.252h-.393l-2.15-2.977-2.145,2.977h-.393l2.344-3.252-2.227-3.088h.398l2.027,2.812Z"/></svg>